<?xml version="1.0" standalone="no"?><!DOCTYPE svg PUBLIC "-//W3C//DTD SVG 1.1//EN" "http://www.w3.org/Graphics/SVG/1.1/DTD/svg11.dtd"><svg class="icon" width="200px" height="105.68px" viewBox="0 0 1938 1024" version="1.1" xmlns="http://www.w3.org/2000/svg"><path d="M539.266272 103.005917v175.715976l133.301775 147.086391 154.357397-13.633136 99.218935-105.429586L846.769231 139.360947l-141.633136-60.591716zM1071.110059 445.652071h175.715977l147.08639-133.301775-13.633136-154.357397-105.429586-99.067455-167.384615 79.223668-60.591716 141.633137zM1027.029586 622.579882v175.715976l133.301775 147.086391 154.357396-13.633137 99.218935-105.429585L1334.532544 658.934911l-141.633136-60.591716zM898.575148 622.579882v175.715976l-133.301775 147.086391-154.357397-13.633137-99.218935-105.429585L591.072189 658.934911l141.633136-60.591716z" fill="#C1D284" /><path d="M576.378698 115.881657c0 0.151479-0.151479 0.151479-0.151479 0.302958s-0.151479 0.151479-0.151479 0.302959c0-0.151479 0.151479-0.302959 0.302958-0.605917z m-1.817751 1.969231s-0.151479 0-0.15148 0.151479c-0.151479 0-0.151479 0.151479-0.302958 0.151479 0.151479-0.151479 0.302959-0.302959 0.454438-0.302958z m0 0z m-1.060355 0.454437z m22.267455-1.211834c-9.391716 0-15.753846 0.302959-19.692307 0.757397-0.454438 3.938462-0.757396 10.300592-0.757397 19.692307v121.334912c0 78.314793 63.469822 141.784615 141.784616 141.784615 78.314793 0 141.784615-63.469822 141.784615-141.784615 0-78.314793-63.469822-141.784615-141.784615-141.784616h-121.334912z m335.678107 141.784616c0 118.456805-96.03787 214.494675-214.494675 214.494674-118.456805 0-214.494675-96.03787-214.494674-214.494674V137.543195c0-32.416568 3.332544-44.231953 9.694674-56.047337 6.36213-11.815385 15.602367-21.207101 27.417752-27.417751 11.815385-6.36213 23.630769-9.694675 56.047337-9.694675h121.334911c118.456805 0 214.494675 96.03787 214.494675 214.494675zM856.312426 621.065089c0.151479 0.302959 0.302959 0.454438 0.302959 0.605917 0-0.151479-0.151479-0.151479-0.15148-0.302959s0-0.151479-0.151479-0.302958z m1.817752 2.12071s0.151479 0.151479 0.454437 0.302958c-0.151479 0-0.151479-0.151479-0.302958-0.151479 0-0.151479 0-0.151479-0.151479-0.151479z m0-0.151479c0 0.151479 0 0.151479 0 0z m-21.207101-0.757397h-121.334911c-78.314793 0-141.784615 63.469822-141.784616 141.784615 0 78.314793 63.469822 141.784615 141.784616 141.784616 78.314793 0 141.784615-63.469822 141.784615-141.784616v-121.334911c0-9.391716-0.302959-15.753846-0.757396-19.692307-3.786982-0.454438-10.149112-0.757396-19.692308-0.757397z m-121.183432 356.27929c-118.456805 0-214.494675-96.03787-214.494675-214.494675 0-118.456805 96.03787-214.494675 214.494675-214.494674h121.334911c32.416568 0 44.231953 3.332544 56.047337 9.694674 11.815385 6.36213 21.207101 15.602367 27.417752 27.417752 6.36213 11.815385 9.694675 23.630769 9.694675 56.047337v121.334911c0 118.456805-96.03787 214.494675-214.494675 214.494675zM1081.56213 402.934911c-0.151479-0.151479-0.151479-0.454438-0.302958-0.605917 0 0 0 0.151479 0.151479 0.302959 0 0.151479 0.151479 0.151479 0.151479 0.302958z m-1.817751-2.12071c-0.151479-0.151479-0.302959-0.151479-0.454438-0.302958 0.151479 0 0.151479 0.151479 0.302958 0.151479 0 0.151479 0.151479 0.151479 0.15148 0.151479z m0 0z m-1.060355-0.302958z m22.267455 1.211834h121.334912c78.314793 0 141.784615-63.469822 141.784615-141.784615 0-78.314793-63.469822-141.784615-141.784615-141.784616-78.314793 0-141.784615 63.469822-141.784616 141.784616v121.334911c0 9.391716 0.302959 15.753846 0.757397 19.692307 3.938462 0.454438 10.300592 0.757396 19.692307 0.757397zM1222.286391 45.443787c118.456805 0 214.494675 96.03787 214.494674 214.494675 0 118.456805-96.03787 214.494675-214.494674 214.494674h-121.334912c-32.416568 0-44.231953-3.332544-56.047337-9.694674-11.815385-6.36213-21.207101-15.602367-27.417751-27.417752-6.36213-11.815385-9.694675-23.630769-9.694675-56.047337v-121.334911C1007.791716 141.481657 1103.829586 45.443787 1222.286391 45.443787z m-145.420119 577.893491c0.302959-0.151479 0.454438-0.302959 0.605917-0.302958-0.151479 0-0.151479 0.151479-0.302958 0.151479-0.151479 0.151479-0.302959 0.151479-0.302959 0.151479z m1.969231-1.817751s0.151479-0.151479 0.302959-0.454438c0 0.151479-0.151479 0.151479-0.15148 0.302958 0 0 0 0.151479-0.151479 0.15148z m0 0.151479s0-0.151479 0 0z m-0.757396 21.055621v121.334911c0 78.314793 63.469822 141.784615 141.784615 141.784616 78.314793 0 141.784615-63.469822 141.784615-141.784616 0-78.314793-63.469822-141.784615-141.784615-141.784615h-121.334911c-9.391716 0-15.753846 0.302959-19.692308 0.757397-0.454438 3.938462-0.757396 10.300592-0.757396 19.692307zM1219.862722 978.556213c-118.456805 0-214.494675-96.03787-214.494675-214.494675v-121.334911c0-32.416568 3.332544-44.231953 9.694675-56.047337 6.36213-11.815385 15.602367-21.207101 27.417751-27.417752 11.815385-6.36213 23.630769-9.694675 56.047338-9.694674h121.334911c118.456805 0 214.494675 96.03787 214.494674 214.494674 0 118.456805-96.03787 214.494675-214.494674 214.494675z m0 0" fill="#2F906E" /><path d="M643.938462 189.500592L846.769231 392.331361M846.769231 420.35503c-7.119527 0-14.390533-2.726627-19.843787-8.179882L624.094675 209.192899c-10.906509-10.906509-10.906509-28.629586 0-39.687574s28.629586-10.906509 39.687574 0l202.830769 202.83077c10.906509 10.906509 10.906509 28.629586 0 39.687574-5.453254 5.604734-12.72426 8.331361-19.843787 8.331361zM733.159763 278.721893v-90.887573" fill="#2F906E" /><path d="M733.159763 306.745562c-15.450888 0-28.023669-12.572781-28.023668-28.023669v-90.887573c0-15.450888 12.572781-28.023669 28.023668-28.023669s28.023669 12.572781 28.023669 28.023669v90.887573c0 15.450888-12.572781 28.023669-28.023669 28.023669z" fill="#2F906E" /><path d="M778.60355 324.16568h-106.035503M778.60355 352.189349h-106.035503c-15.450888 0-28.023669-12.572781-28.023668-28.023669s12.572781-28.023669 28.023668-28.023668h106.035503c15.450888 0 28.023669 12.572781 28.023669 28.023668s-12.572781 28.023669-28.023669 28.023669z" fill="#2F906E" /></svg>